<svg width="22" height="22" viewBox="0 0 22 22" fill="none" xmlns="http://www.w3.org/2000/svg">
<path d="M11 8.13618C9.42306 8.13618 8.13615 9.4231 8.13615 11.0001C8.13615 12.577 9.42306 13.8639 11 13.8639C12.577 13.8639 13.8639 12.577 13.8639 11.0001C13.8639 9.4231 12.577 8.13618 11 8.13618ZM19.5895 11.0001C19.5895 9.81411 19.6002 8.63892 19.5336 7.45513C19.467 6.08013 19.1533 4.85982 18.1479 3.85435C17.1403 2.84673 15.9221 2.53521 14.5471 2.46861C13.3611 2.40201 12.186 2.41275 11.0022 2.41275C9.81622 2.41275 8.64103 2.40201 7.45724 2.46861C6.08224 2.53521 4.86193 2.84888 3.85646 3.85435C2.84884 4.86197 2.53732 6.08013 2.47071 7.45513C2.40411 8.64107 2.41485 9.81626 2.41485 11.0001C2.41485 12.1838 2.40411 13.3612 2.47071 14.545C2.53732 15.92 2.85099 17.1403 3.85646 18.1458C4.86407 19.1534 6.08224 19.4649 7.45724 19.5315C8.64318 19.5981 9.81837 19.5874 11.0022 19.5874C12.1881 19.5874 13.3633 19.5981 14.5471 19.5315C15.9221 19.4649 17.1424 19.1512 18.1479 18.1458C19.1555 17.1381 19.467 15.92 19.5336 14.545C19.6024 13.3612 19.5895 12.186 19.5895 11.0001ZM11 15.4065C8.56154 15.4065 6.59357 13.4385 6.59357 11.0001C6.59357 8.56157 8.56154 6.59361 11 6.59361C13.4385 6.59361 15.4065 8.56157 15.4065 11.0001C15.4065 13.4385 13.4385 15.4065 11 15.4065ZM15.5869 7.44224C15.0176 7.44224 14.5578 6.98247 14.5578 6.41314C14.5578 5.8438 15.0176 5.38404 15.5869 5.38404C16.1563 5.38404 16.616 5.8438 16.616 6.41314C16.6162 6.54833 16.5897 6.68223 16.538 6.80716C16.4864 6.93209 16.4106 7.04561 16.315 7.1412C16.2194 7.2368 16.1059 7.31259 15.981 7.36425C15.856 7.41591 15.7221 7.44241 15.5869 7.44224Z" fill="white"/>
</svg>
