<svg width="161" height="142" viewBox="0 0 161 142" fill="none" xmlns="http://www.w3.org/2000/svg">
<path d="M59.3079 29.7826C55.5699 34.2209 48.9559 34.7804 44.5341 31.0283C40.1124 27.2763 39.555 20.6375 43.2931 16.1992C47.0311 11.7609 53.6451 11.2014 58.0669 14.9535C59.0181 15.7591 59.7836 16.7064 60.3707 17.7358L71.1166 11.5073C69.831 9.26947 68.1663 7.19578 66.078 5.42792C56.4245 -2.76242 41.9702 -1.53909 33.8105 8.15803C25.6432 17.8552 26.862 32.3635 36.523 40.5539C46.1839 48.7442 60.6382 47.5283 68.798 37.8312C69.6898 36.772 70.4552 35.6456 71.124 34.482L60.3781 28.2535C60.0734 28.7831 59.7241 29.2978 59.3154 29.7901L59.3079 29.7826Z" fill="#F1F1EC"/>
<path d="M71.1237 11.5081L60.3777 17.7366C62.2282 20.9516 62.2728 24.9721 60.3777 28.2468L71.1237 34.4753C75.2556 27.3069 75.159 18.5273 71.1237 11.5081Z" fill="white"/>
<path d="M116.366 11.507C115.08 9.26917 113.416 7.19548 111.328 5.42762C101.667 -2.76272 87.2123 -1.54685 79.0525 8.15027C70.8927 17.8474 72.1041 32.3558 81.765 40.5461C91.426 48.7365 105.88 47.5206 114.04 37.8235C114.932 36.7642 115.697 35.6379 116.366 34.4742C120.498 27.3058 120.401 18.5262 116.366 11.507ZM104.557 29.7823C100.819 34.2206 94.2053 34.7801 89.7836 31.028C85.3619 27.276 84.8045 20.6372 88.5425 16.1989C92.2806 11.7606 98.8946 11.2011 103.316 14.9532C104.268 15.7588 105.033 16.7061 105.62 17.7355C107.471 20.9505 107.515 24.971 105.62 28.2457C105.315 28.7753 104.966 29.29 104.557 29.7823Z" fill="white"/>
<path d="M88.5219 61.6343C92.26 57.196 98.874 56.6365 103.296 60.3886C107.717 64.1406 108.275 70.7794 104.537 75.2177C100.799 79.656 94.1847 80.2155 89.763 76.4634C88.8117 75.6578 88.0463 74.7105 87.4592 73.6811L76.7133 79.9096C77.9989 82.1474 79.6636 84.2211 81.7518 85.989C91.4128 94.1793 105.867 92.9635 114.027 83.2663C122.187 73.5692 120.975 59.0608 111.314 50.8705C101.653 42.6802 87.1991 43.896 79.0393 53.5931C78.1475 54.6524 77.3821 55.7787 76.7133 56.9424L87.4592 63.1709C87.7639 62.6413 88.1132 62.1266 88.5219 61.6343Z" fill="#F1F1EC"/>
<path d="M76.7114 79.9096L87.4574 73.6811C85.6069 70.4661 85.5624 66.4456 87.4574 63.1709L76.7114 56.9424C72.5795 64.1108 72.6761 72.8904 76.7114 79.9096Z" fill="white"/>
<path d="M66.0639 50.8629C56.403 42.6726 41.9487 43.8885 33.7889 53.5856C32.8971 54.6448 32.1317 55.7712 31.4628 56.9348C27.3309 64.1032 27.4275 72.8828 31.4628 79.9021C32.7485 82.1399 34.4131 84.2136 36.5014 85.9814C46.1624 94.1718 60.6166 92.9559 68.7764 83.2588C76.9362 73.5616 75.7249 59.0533 66.0639 50.8629ZM59.2938 75.2176C55.5558 79.6559 48.9417 80.2154 44.52 76.4633C43.5688 75.6577 42.8033 74.7104 42.2162 73.681C40.3658 70.466 40.3212 66.4454 42.2162 63.1708C42.5209 62.6412 42.8702 62.1265 43.2789 61.6342C47.017 57.1959 53.631 56.6364 58.0528 60.3885C62.4745 64.1405 63.0319 70.7793 59.2938 75.2176Z" fill="white"/>
<path d="M11.4754 108.026C12.4073 108.026 13.6054 108.212 14.6171 108.452C15.3094 108.558 16.2413 108.904 16.6406 108.958C16.7738 108.958 17.04 109.144 17.04 109.756C17.04 110.316 17.1731 111.487 17.2264 112.073C17.253 112.632 17.04 112.951 16.827 112.951C16.6939 112.951 16.5341 112.659 16.401 112.259C16.1614 111.327 15.6555 110.529 15.3094 110.262C13.845 109.171 12.4871 108.878 11.0494 108.878C6.76275 108.878 4.02038 112.419 4.02038 116.439C4.02038 118.223 4.3665 119.661 4.95225 120.832C6.44325 123.894 9.53175 125.092 11.6884 125.092C12.1943 125.092 13.4989 125.013 14.5905 124.374C15.762 123.761 16.4276 122.909 17.0666 121.791C17.4128 121.232 17.5193 121.099 17.6258 121.099C17.892 121.099 17.9186 121.684 17.8654 121.977C17.7855 122.643 17.1731 124.054 16.8004 124.666C16.6939 124.906 16.2413 125.226 15.975 125.359C15.549 125.545 13.3924 126.104 11.1293 126.104C7.37513 126.104 4.63275 124.24 3.56775 122.989C2.556 121.818 1.33125 119.901 1.33125 116.865C1.33125 113.83 3.14175 111.407 4.26 110.475C6.54975 108.612 9.02588 108.026 11.4754 108.026ZM30.5043 108.026C35.6163 108.026 39.7432 111.78 39.7432 116.839C39.7432 120.566 37.9061 123.175 35.9625 124.56C34.2851 125.732 32.0752 126.104 30.7173 126.104C28.0016 126.104 25.419 124.933 23.7948 123.069C22.3837 121.498 21.585 119.341 21.585 117.052C21.585 113.777 23.0227 111.514 25.0462 109.89C26.3508 108.825 28.6406 108.026 30.5043 108.026ZM29.9186 108.904C28.8003 108.904 27.1762 109.49 26.2443 110.422C25.0728 111.567 24.1676 113.564 24.1676 116.679C24.1676 120.646 27.0963 125.199 31.3563 125.199C33.5662 125.199 34.578 124.24 34.8708 123.921C35.9358 122.962 37.134 120.806 37.134 117.637C37.134 114.735 35.8826 111.94 33.9123 110.342C32.8207 109.464 31.1433 108.904 29.9186 108.904ZM54.0109 108.026C54.9428 108.026 56.1409 108.212 57.1526 108.452C57.8449 108.558 58.7768 108.904 59.1761 108.958C59.3093 108.958 59.5755 109.144 59.5755 109.756C59.5755 110.316 59.7086 111.487 59.7619 112.073C59.7885 112.632 59.5755 112.951 59.3625 112.951C59.2294 112.951 59.0696 112.659 58.9365 112.259C58.6969 111.327 58.191 110.529 57.8449 110.262C56.3805 109.171 55.0226 108.878 53.5849 108.878C49.2983 108.878 46.5559 112.419 46.5559 116.439C46.5559 118.223 46.902 119.661 47.4878 120.832C48.9788 123.894 52.0673 125.092 54.2239 125.092C54.7298 125.092 56.0344 125.013 57.126 124.374C58.2975 123.761 58.9631 122.909 59.6021 121.791C59.9483 121.232 60.0548 121.099 60.1613 121.099C60.4275 121.099 60.4541 121.684 60.4009 121.977C60.321 122.643 59.7086 124.054 59.3359 124.666C59.2294 124.906 58.7768 125.226 58.5105 125.359C58.0845 125.545 55.9279 126.104 53.6648 126.104C49.9106 126.104 47.1683 124.24 46.1033 122.989C45.0915 121.818 43.8668 119.901 43.8668 116.865C43.8668 113.83 45.6773 111.407 46.7955 110.475C49.0853 108.612 51.5614 108.026 54.0109 108.026ZM73.0399 108.026C78.1519 108.026 82.2787 111.78 82.2787 116.839C82.2787 120.566 80.4416 123.175 78.498 124.56C76.8206 125.732 74.6107 126.104 73.2529 126.104C70.5371 126.104 67.9545 124.933 66.3304 123.069C64.9192 121.498 64.1205 119.341 64.1205 117.052C64.1205 113.777 65.5582 111.514 67.5817 109.89C68.8864 108.825 71.1761 108.026 73.0399 108.026ZM72.4541 108.904C71.3359 108.904 69.7117 109.49 68.7799 110.422C67.6084 111.567 66.7031 113.564 66.7031 116.679C66.7031 120.646 69.6319 125.199 73.8919 125.199C76.1017 125.199 77.1135 124.24 77.4064 123.921C78.4714 122.962 79.6695 120.806 79.6695 117.637C79.6695 114.735 78.4181 111.94 76.4479 110.342C75.3562 109.464 73.6789 108.904 72.4541 108.904ZM86.1404 108.718C86.1404 108.452 86.3268 108.452 86.9125 108.452C88.6432 108.452 88.936 108.505 90.4803 108.505C90.5335 108.505 90.7465 108.718 90.7732 108.851C91.0927 109.836 91.2524 110.129 91.7849 111.274C93.2759 114.416 96.3644 120.806 96.7372 121.312C96.7904 121.392 96.9502 121.471 97.0034 121.392C97.243 120.939 102.222 111.54 102.648 110.422C102.675 110.316 103.101 109.41 103.26 108.878C103.287 108.745 103.5 108.505 103.553 108.505C104.512 108.505 106.668 108.425 106.908 108.425C107.254 108.425 107.6 108.478 107.6 108.718C107.6 108.904 107.387 109.064 106.908 109.144C106.482 109.224 106.109 109.33 105.71 109.49C105.31 109.65 104.884 110.156 104.884 111.54C104.884 118.942 105.177 122.323 105.257 123.069C105.417 124.267 105.71 124.533 106.988 124.906C107.467 125.013 107.707 125.226 107.707 125.412C107.707 125.625 107.334 125.758 106.935 125.758C106.642 125.758 104.592 125.625 103.606 125.625C103.101 125.625 102.222 125.705 101.583 125.705C101.29 125.705 100.864 125.598 100.864 125.332C100.864 125.092 101.184 124.959 101.556 124.853C102.648 124.533 102.701 123.921 102.781 122.936C102.888 121.738 102.834 114.016 102.754 112.659C102.754 112.472 102.648 112.312 102.488 112.579C102.195 113.085 99.2133 118.942 98.1749 121.125C97.5359 122.51 96.9235 123.894 96.5242 124.933C96.2313 125.705 96.0982 125.678 95.9118 125.678C95.752 125.678 95.5923 125.465 95.5124 125.172C95.326 124.507 95.0332 123.628 94.5273 122.35C93.0895 118.836 90.9063 114.629 89.9212 112.366C89.8413 112.179 89.7614 112.153 89.7348 112.446C89.5218 113.564 89.2289 120.273 89.3088 122.723C89.362 124.081 89.575 124.453 90.9329 124.879C91.5187 125.039 91.6518 125.146 91.6518 125.385C91.6518 125.598 91.3589 125.705 90.9329 125.705C90.0809 125.705 88.9627 125.625 88.2704 125.625C87.6314 125.625 86.806 125.705 86.1404 125.705C85.741 125.705 85.4482 125.625 85.4482 125.332C85.4482 125.226 85.6345 125.039 85.9807 124.959C87.6314 124.48 87.7912 124.027 88.0042 122.51C88.2704 120.673 88.8562 113.005 88.9094 111.008C88.9094 110.795 88.8562 109.783 87.7113 109.464C87.2587 109.33 86.9125 109.224 86.5664 109.144C86.38 109.091 86.1404 108.904 86.1404 108.718ZM119.326 108.026C119.432 108.026 119.539 108.132 119.752 108.718C119.965 109.437 120.417 110.635 120.923 112.02C122.308 115.907 124.304 121.179 124.757 122.27C125.636 124.453 126.062 124.666 127.26 124.959C127.686 125.092 127.899 125.226 127.899 125.412C127.899 125.598 127.712 125.758 127.047 125.758C126.168 125.758 124.864 125.625 123.692 125.625C122.84 125.625 122.467 125.678 121.802 125.678C121.136 125.678 120.976 125.492 120.976 125.359C120.976 125.226 121.136 125.013 121.615 124.933C122.893 124.666 122.787 124.134 122.68 123.575C122.467 122.483 121.802 120.726 121.189 119.022C121.163 118.915 121.056 118.756 120.284 118.756C118.82 118.756 116.477 118.782 115.918 118.862C115.811 118.862 115.678 118.995 115.625 119.075C114.932 120.806 114.24 123.069 114.24 123.735C114.24 124.054 114.347 124.507 115.545 124.879C115.997 125.013 116.264 125.172 116.264 125.359C116.264 125.625 115.864 125.705 115.518 125.705C115.066 125.705 114.4 125.625 113.415 125.625C112.43 125.625 111.045 125.758 110.646 125.758C110.167 125.758 110.033 125.652 110.033 125.492C110.033 125.332 110.22 125.092 110.619 124.959C111.95 124.507 112.297 124.427 113.069 122.696C113.681 121.338 116.716 113.298 117.835 110.582C117.994 110.209 118.021 110.049 118.074 109.89C118.101 109.81 118.154 109.65 118.261 109.437C118.42 109.171 118.713 108.665 118.9 108.372C119.086 108.159 119.192 108.026 119.326 108.026ZM120.524 117.558C120.55 117.558 120.63 117.424 120.604 117.345C120.151 115.987 118.766 111.993 118.527 111.62C118.447 111.46 118.394 111.434 118.314 111.62C117.835 112.898 116.45 116.626 116.237 117.451C116.21 117.558 116.264 117.637 116.37 117.637C117.435 117.611 119.645 117.637 120.524 117.558ZM135.23 108.505C136.614 108.505 140.235 108.478 141.327 108.452C142.285 108.399 142.764 108.239 143.137 107.973C143.324 107.866 143.403 107.813 143.51 107.813C143.643 107.813 143.75 108.052 143.616 108.425C143.35 109.251 143.19 110.103 143.031 111.487C143.004 111.727 142.791 111.993 142.578 111.993C142.392 111.993 142.285 111.807 142.205 111.141C142.046 109.756 141.699 109.623 140.049 109.543C139.596 109.517 136.641 109.517 136.321 109.597C136.188 109.623 136.082 109.89 136.082 109.943C136.082 111.194 136.082 114.15 136.082 116.466C136.082 119.554 136.082 122.084 136.188 123.069C136.321 124.267 136.454 124.587 138.105 124.959C138.451 125.039 138.824 125.252 138.824 125.439C138.824 125.732 138.345 125.758 138.078 125.758C137.865 125.758 136.215 125.625 135.043 125.625C133.712 125.625 132.354 125.811 132.008 125.811C131.475 125.811 131.209 125.652 131.209 125.492C131.209 125.305 131.475 125.092 131.715 125.039C133.579 124.613 133.632 124.161 133.712 122.164C133.765 120.593 133.898 115.161 133.898 113.111C133.898 111.594 133.898 111.088 133.898 109.943C133.898 109.73 133.765 109.597 133.685 109.597C133.153 109.517 130.81 109.464 130.384 109.464C129.372 109.464 128.813 109.623 128.414 110.076C128.307 110.156 127.988 110.582 127.535 111.46C127.295 112.02 127.136 111.993 127.029 111.993C126.869 111.993 126.763 111.647 126.763 111.381C126.763 110.875 127.269 109.41 127.269 107.839C127.269 107.68 127.508 107.413 127.668 107.413C127.801 107.413 127.801 107.6 128.094 107.839C128.174 107.919 128.6 108.319 128.999 108.345C129.692 108.425 131.822 108.505 135.23 108.505ZM151.328 108.505H155.241C156.12 108.505 157.292 108.478 157.691 108.425C157.771 108.399 157.904 108.585 157.931 108.718C157.931 109.943 157.984 110.715 157.984 111.247C157.984 111.62 157.824 111.94 157.584 111.94C157.345 111.94 157.212 111.567 157.158 111.301C156.812 109.89 156.227 109.623 155.375 109.49C154.682 109.384 152.765 109.33 151.594 109.384C151.541 109.384 151.248 109.517 151.194 110.129C151.141 110.795 151.061 115.8 151.115 116.2C151.141 116.306 151.168 116.466 151.301 116.466H153.032C155.534 116.466 155.641 116.359 156.12 115.135C156.28 114.735 156.44 114.576 156.599 114.576C156.786 114.576 156.839 114.948 156.812 115.161C156.759 115.907 156.732 116.439 156.732 117.078C156.732 117.797 156.786 118.17 156.812 118.702C156.839 119.182 156.706 119.475 156.519 119.475C156.333 119.475 156.147 119.182 156.067 118.889C155.694 117.664 155.588 117.584 153.963 117.504C153.111 117.451 152.046 117.451 151.328 117.451C151.221 117.451 151.088 117.637 151.088 117.691C150.981 118.25 151.008 120.726 151.008 121.871C151.008 122.643 151.115 123.655 151.274 124.081C151.381 124.4 151.594 124.613 151.78 124.666C152.233 124.746 153.138 124.853 154.203 124.853C154.523 124.853 156.147 124.826 156.732 124.666C157.584 124.453 158.303 123.948 158.942 122.696C159.235 122.111 159.395 121.951 159.555 121.951C159.741 121.951 159.821 122.377 159.768 122.67C159.741 122.883 158.996 125.279 158.809 125.518C158.729 125.625 158.49 125.838 158.357 125.838C158.064 125.838 154.043 125.625 149.703 125.625C148.292 125.625 147.707 125.758 146.695 125.758C146.189 125.758 145.896 125.705 145.896 125.412C145.896 125.226 146.216 125.092 146.642 124.986C147.973 124.666 148.479 124.48 148.585 123.042C148.665 121.924 148.798 118.782 148.798 115.481C148.798 112.312 148.825 111.753 148.772 110.981C148.718 109.81 148.452 109.49 147.281 109.224C146.721 109.091 146.508 108.984 146.508 108.771C146.508 108.532 146.881 108.399 147.254 108.399C148.505 108.399 149.544 108.505 151.328 108.505Z" fill="white"/>
</svg>
