<svg width="157" height="137" viewBox="0 0 157 137" fill="none" xmlns="http://www.w3.org/2000/svg">
<path d="M62.5186 30.9491C58.6341 35.5612 51.761 36.1426 47.1661 32.2436C42.5711 28.3446 41.9919 21.4457 45.8764 16.8336C49.7609 12.2214 56.634 11.6401 61.2289 15.5391C62.2174 16.3762 63.0128 17.3607 63.6229 18.4304L74.7898 11.9579C73.4538 9.63242 71.7239 7.4775 69.5539 5.64039C59.5222 -2.87076 44.5018 -1.59951 36.0224 8.47745C27.5352 18.5544 28.8018 33.6311 38.8411 42.1422C48.8805 50.6534 63.9009 49.3899 72.3804 39.3129C73.3071 38.2122 74.1025 37.0417 74.7975 35.8325L63.6307 29.36C63.314 29.9104 62.9511 30.4452 62.5263 30.9568L62.5186 30.9491Z" fill="#D5CEB3"/>
<path d="M74.7972 11.959L63.6303 18.4315C65.5532 21.7724 65.5996 25.9504 63.6303 29.3534L74.7972 35.8259C79.0909 28.3767 78.9906 19.2531 74.7972 11.959Z" fill="white"/>
<path d="M121.812 11.9577C120.476 9.63224 118.746 7.47732 116.576 5.64022C106.536 -2.87094 91.5159 -1.60744 83.0365 8.46951C74.5571 18.5465 75.8159 33.6231 85.8553 42.1343C95.8947 50.6455 110.915 49.382 119.395 39.305C120.321 38.2043 121.117 37.0338 121.812 35.8246C126.105 28.3754 126.005 19.2519 121.812 11.9577ZM109.54 30.9489C105.656 35.561 98.7829 36.1424 94.188 32.2434C89.593 28.3444 89.0138 21.4455 92.8983 16.8334C96.7828 12.2212 103.656 11.6399 108.251 15.5389C109.239 16.3761 110.035 17.3605 110.645 18.4302C112.568 21.7711 112.614 25.9492 110.645 29.3521C110.328 29.9024 109.965 30.4373 109.54 30.9489Z" fill="white"/>
<path d="M92.8769 64.0483C96.7613 59.4362 103.634 58.8548 108.229 62.7538C112.824 66.6528 113.404 73.5516 109.519 78.1638C105.635 82.7759 98.7615 83.3573 94.1665 79.4583C93.178 78.6211 92.3826 77.6367 91.7725 76.567L80.6057 83.0395C81.9417 85.3649 83.6715 87.5198 85.8416 89.357C95.8809 97.8681 110.901 96.6046 119.381 86.5277C127.86 76.4507 126.601 61.374 116.562 52.8629C106.523 44.3517 91.5022 45.6152 83.0228 55.6922C82.0961 56.7929 81.3007 57.9634 80.6057 59.1726L91.7725 65.6451C92.0891 65.0947 92.4521 64.5599 92.8769 64.0483Z" fill="#D5CEB3"/>
<path d="M80.6038 83.0392L91.7707 76.5667C89.8478 73.2258 89.8014 69.0478 91.7707 65.6449L80.6038 59.1724C76.31 66.6216 76.4104 75.7451 80.6038 83.0392Z" fill="white"/>
<path d="M69.5392 52.8551C59.4998 44.3439 44.4794 45.6074 36 55.6844C35.0733 56.7851 34.2778 57.9555 33.5828 59.1648C29.289 66.614 29.3894 75.7375 33.5828 83.0317C34.9188 85.3571 36.6487 87.512 38.8187 89.3491C48.8581 97.8603 63.8785 96.5968 72.358 86.5198C80.8374 76.4429 79.5786 61.3662 69.5392 52.8551ZM62.5039 78.1637C58.6195 82.7759 51.7464 83.3572 47.1514 79.4582C46.1629 78.6211 45.3675 77.6366 44.7574 76.5669C42.8345 73.226 42.7881 69.048 44.7574 65.645C45.074 65.0947 45.437 64.5598 45.8617 64.0482C49.7462 59.4361 56.6193 58.8547 61.2143 62.7537C65.8092 66.6527 66.3884 73.5516 62.5039 78.1637Z" fill="white"/>
<path d="M11.206 112.811C12.116 112.811 13.286 112.993 14.274 113.227C14.95 113.331 15.86 113.669 16.25 113.721C16.38 113.721 16.64 113.903 16.64 114.501C16.64 115.047 16.77 116.191 16.822 116.763C16.848 117.309 16.64 117.621 16.432 117.621C16.302 117.621 16.146 117.335 16.016 116.945C15.782 116.035 15.288 115.255 14.95 114.995C13.52 113.929 12.194 113.643 10.79 113.643C6.604 113.643 3.926 117.101 3.926 121.027C3.926 122.769 4.264 124.173 4.836 125.317C6.292 128.307 9.308 129.477 11.414 129.477C11.908 129.477 13.182 129.399 14.248 128.775C15.392 128.177 16.042 127.345 16.666 126.253C17.004 125.707 17.108 125.577 17.212 125.577C17.472 125.577 17.498 126.149 17.446 126.435C17.368 127.085 16.77 128.463 16.406 129.061C16.302 129.295 15.86 129.607 15.6 129.737C15.184 129.919 13.078 130.465 10.868 130.465C7.202 130.465 4.524 128.645 3.484 127.423C2.496 126.279 1.3 124.407 1.3 121.443C1.3 118.479 3.068 116.113 4.16 115.203C6.396 113.383 8.814 112.811 11.206 112.811ZM29.7883 112.811C34.7803 112.811 38.8103 116.477 38.8103 121.417C38.8103 125.057 37.0163 127.605 35.1183 128.957C33.4803 130.101 31.3223 130.465 29.9963 130.465C27.3443 130.465 24.8223 129.321 23.2363 127.501C21.8583 125.967 21.0783 123.861 21.0783 121.625C21.0783 118.427 22.4823 116.217 24.4583 114.631C25.7323 113.591 27.9683 112.811 29.7883 112.811ZM29.2163 113.669C28.1243 113.669 26.5383 114.241 25.6283 115.151C24.4843 116.269 23.6003 118.219 23.6003 121.261C23.6003 125.135 26.4603 129.581 30.6203 129.581C32.7783 129.581 33.7663 128.645 34.0523 128.333C35.0923 127.397 36.2623 125.291 36.2623 122.197C36.2623 119.363 35.0403 116.633 33.1163 115.073C32.0503 114.215 30.4123 113.669 29.2163 113.669ZM52.743 112.811C53.653 112.811 54.823 112.993 55.811 113.227C56.487 113.331 57.397 113.669 57.787 113.721C57.917 113.721 58.177 113.903 58.177 114.501C58.177 115.047 58.307 116.191 58.359 116.763C58.385 117.309 58.177 117.621 57.969 117.621C57.839 117.621 57.683 117.335 57.553 116.945C57.319 116.035 56.825 115.255 56.487 114.995C55.057 113.929 53.731 113.643 52.327 113.643C48.141 113.643 45.463 117.101 45.463 121.027C45.463 122.769 45.801 124.173 46.373 125.317C47.829 128.307 50.845 129.477 52.951 129.477C53.445 129.477 54.719 129.399 55.785 128.775C56.929 128.177 57.579 127.345 58.203 126.253C58.541 125.707 58.645 125.577 58.749 125.577C59.009 125.577 59.035 126.149 58.983 126.435C58.905 127.085 58.307 128.463 57.943 129.061C57.839 129.295 57.397 129.607 57.137 129.737C56.721 129.919 54.615 130.465 52.405 130.465C48.739 130.465 46.061 128.645 45.021 127.423C44.033 126.279 42.837 124.407 42.837 121.443C42.837 118.479 44.605 116.113 45.697 115.203C47.933 113.383 50.351 112.811 52.743 112.811ZM71.3253 112.811C76.3173 112.811 80.3473 116.477 80.3473 121.417C80.3473 125.057 78.5533 127.605 76.6553 128.957C75.0173 130.101 72.8593 130.465 71.5333 130.465C68.8813 130.465 66.3593 129.321 64.7733 127.501C63.3953 125.967 62.6153 123.861 62.6153 121.625C62.6153 118.427 64.0193 116.217 65.9953 114.631C67.2693 113.591 69.5053 112.811 71.3253 112.811ZM70.7533 113.669C69.6613 113.669 68.0753 114.241 67.1653 115.151C66.0213 116.269 65.1373 118.219 65.1373 121.261C65.1373 125.135 67.9973 129.581 72.1573 129.581C74.3153 129.581 75.3033 128.645 75.5893 128.333C76.6293 127.397 77.7993 125.291 77.7993 122.197C77.7993 119.363 76.5773 116.633 74.6533 115.073C73.5873 114.215 71.9493 113.669 70.7533 113.669ZM84.1183 113.487C84.1183 113.227 84.3003 113.227 84.8723 113.227C86.5623 113.227 86.8483 113.279 88.3563 113.279C88.4083 113.279 88.6163 113.487 88.6423 113.617C88.9543 114.579 89.1103 114.865 89.6303 115.983C91.0863 119.051 94.1023 125.291 94.4663 125.785C94.5183 125.863 94.6743 125.941 94.7263 125.863C94.9603 125.421 99.8223 116.243 100.238 115.151C100.264 115.047 100.68 114.163 100.836 113.643C100.862 113.513 101.07 113.279 101.122 113.279C102.058 113.279 104.164 113.201 104.398 113.201C104.736 113.201 105.074 113.253 105.074 113.487C105.074 113.669 104.866 113.825 104.398 113.903C103.982 113.981 103.618 114.085 103.228 114.241C102.838 114.397 102.422 114.891 102.422 116.243C102.422 123.471 102.708 126.773 102.786 127.501C102.942 128.671 103.228 128.931 104.476 129.295C104.944 129.399 105.178 129.607 105.178 129.789C105.178 129.997 104.814 130.127 104.424 130.127C104.138 130.127 102.136 129.997 101.174 129.997C100.68 129.997 99.8223 130.075 99.1983 130.075C98.9123 130.075 98.4963 129.971 98.4963 129.711C98.4963 129.477 98.8083 129.347 99.1723 129.243C100.238 128.931 100.29 128.333 100.368 127.371C100.472 126.201 100.42 118.661 100.342 117.335C100.342 117.153 100.238 116.997 100.082 117.257C99.7963 117.751 96.8843 123.471 95.8703 125.603C95.2463 126.955 94.6483 128.307 94.2583 129.321C93.9723 130.075 93.8423 130.049 93.6603 130.049C93.5043 130.049 93.3483 129.841 93.2703 129.555C93.0883 128.905 92.8023 128.047 92.3083 126.799C90.9043 123.367 88.7723 119.259 87.8103 117.049C87.7323 116.867 87.6543 116.841 87.6283 117.127C87.4203 118.219 87.1343 124.771 87.2123 127.163C87.2643 128.489 87.4723 128.853 88.7983 129.269C89.3703 129.425 89.5003 129.529 89.5003 129.763C89.5003 129.971 89.2143 130.075 88.7983 130.075C87.9663 130.075 86.8743 129.997 86.1983 129.997C85.5743 129.997 84.7683 130.075 84.1183 130.075C83.7283 130.075 83.4423 129.997 83.4423 129.711C83.4423 129.607 83.6243 129.425 83.9623 129.347C85.5743 128.879 85.7303 128.437 85.9383 126.955C86.1983 125.161 86.7703 117.673 86.8223 115.723C86.8223 115.515 86.7703 114.527 85.6523 114.215C85.2103 114.085 84.8723 113.981 84.5343 113.903C84.3523 113.851 84.1183 113.669 84.1183 113.487ZM116.524 112.811C116.628 112.811 116.732 112.915 116.94 113.487C117.148 114.189 117.59 115.359 118.084 116.711C119.436 120.507 121.386 125.655 121.828 126.721C122.686 128.853 123.102 129.061 124.272 129.347C124.688 129.477 124.896 129.607 124.896 129.789C124.896 129.971 124.714 130.127 124.064 130.127C123.206 130.127 121.932 129.997 120.788 129.997C119.956 129.997 119.592 130.049 118.942 130.049C118.292 130.049 118.136 129.867 118.136 129.737C118.136 129.607 118.292 129.399 118.76 129.321C120.008 129.061 119.904 128.541 119.8 127.995C119.592 126.929 118.942 125.213 118.344 123.549C118.318 123.445 118.214 123.289 117.46 123.289C116.03 123.289 113.742 123.315 113.196 123.393C113.092 123.393 112.962 123.523 112.91 123.601C112.234 125.291 111.558 127.501 111.558 128.151C111.558 128.463 111.662 128.905 112.832 129.269C113.274 129.399 113.534 129.555 113.534 129.737C113.534 129.997 113.144 130.075 112.806 130.075C112.364 130.075 111.714 129.997 110.752 129.997C109.79 129.997 108.438 130.127 108.048 130.127C107.58 130.127 107.45 130.023 107.45 129.867C107.45 129.711 107.632 129.477 108.022 129.347C109.322 128.905 109.66 128.827 110.414 127.137C111.012 125.811 113.976 117.959 115.068 115.307C115.224 114.943 115.25 114.787 115.302 114.631C115.328 114.553 115.38 114.397 115.484 114.189C115.64 113.929 115.926 113.435 116.108 113.149C116.29 112.941 116.394 112.811 116.524 112.811ZM117.694 122.119C117.72 122.119 117.798 121.989 117.772 121.911C117.33 120.585 115.978 116.685 115.744 116.321C115.666 116.165 115.614 116.139 115.536 116.321C115.068 117.569 113.716 121.209 113.508 122.015C113.482 122.119 113.534 122.197 113.638 122.197C114.678 122.171 116.836 122.197 117.694 122.119ZM132.055 113.279C133.407 113.279 136.943 113.253 138.009 113.227C138.945 113.175 139.413 113.019 139.777 112.759C139.959 112.655 140.037 112.603 140.141 112.603C140.271 112.603 140.375 112.837 140.245 113.201C139.985 114.007 139.829 114.839 139.673 116.191C139.647 116.425 139.439 116.685 139.231 116.685C139.049 116.685 138.945 116.503 138.867 115.853C138.711 114.501 138.373 114.371 136.761 114.293C136.319 114.267 133.433 114.267 133.121 114.345C132.991 114.371 132.887 114.631 132.887 114.683C132.887 115.905 132.887 118.791 132.887 121.053C132.887 124.069 132.887 126.539 132.991 127.501C133.121 128.671 133.251 128.983 134.863 129.347C135.201 129.425 135.565 129.633 135.565 129.815C135.565 130.101 135.097 130.127 134.837 130.127C134.629 130.127 133.017 129.997 131.873 129.997C130.573 129.997 129.247 130.179 128.909 130.179C128.389 130.179 128.129 130.023 128.129 129.867C128.129 129.685 128.389 129.477 128.623 129.425C130.443 129.009 130.495 128.567 130.573 126.617C130.625 125.083 130.755 119.779 130.755 117.777C130.755 116.295 130.755 115.801 130.755 114.683C130.755 114.475 130.625 114.345 130.547 114.345C130.027 114.267 127.739 114.215 127.323 114.215C126.335 114.215 125.789 114.371 125.399 114.813C125.295 114.891 124.983 115.307 124.541 116.165C124.307 116.711 124.151 116.685 124.047 116.685C123.891 116.685 123.787 116.347 123.787 116.087C123.787 115.593 124.281 114.163 124.281 112.629C124.281 112.473 124.515 112.213 124.671 112.213C124.801 112.213 124.801 112.395 125.087 112.629C125.165 112.707 125.581 113.097 125.971 113.123C126.647 113.201 128.727 113.279 132.055 113.279ZM147.775 113.279H151.597C152.455 113.279 153.599 113.253 153.989 113.201C154.067 113.175 154.197 113.357 154.223 113.487C154.223 114.683 154.275 115.437 154.275 115.957C154.275 116.321 154.119 116.633 153.885 116.633C153.651 116.633 153.521 116.269 153.469 116.009C153.131 114.631 152.559 114.371 151.727 114.241C151.051 114.137 149.179 114.085 148.035 114.137C147.983 114.137 147.697 114.267 147.645 114.865C147.593 115.515 147.515 120.403 147.567 120.793C147.593 120.897 147.619 121.053 147.749 121.053H149.439C151.883 121.053 151.987 120.949 152.455 119.753C152.611 119.363 152.767 119.207 152.923 119.207C153.105 119.207 153.157 119.571 153.131 119.779C153.079 120.507 153.053 121.027 153.053 121.651C153.053 122.353 153.105 122.717 153.131 123.237C153.157 123.705 153.027 123.991 152.845 123.991C152.663 123.991 152.481 123.705 152.403 123.419C152.039 122.223 151.935 122.145 150.349 122.067C149.517 122.015 148.477 122.015 147.775 122.015C147.671 122.015 147.541 122.197 147.541 122.249C147.437 122.795 147.463 125.213 147.463 126.331C147.463 127.085 147.567 128.073 147.723 128.489C147.827 128.801 148.035 129.009 148.217 129.061C148.659 129.139 149.543 129.243 150.583 129.243C150.895 129.243 152.481 129.217 153.053 129.061C153.885 128.853 154.587 128.359 155.211 127.137C155.497 126.565 155.653 126.409 155.809 126.409C155.991 126.409 156.069 126.825 156.017 127.111C155.991 127.319 155.263 129.659 155.081 129.893C155.003 129.997 154.769 130.205 154.639 130.205C154.353 130.205 150.427 129.997 146.189 129.997C144.811 129.997 144.239 130.127 143.251 130.127C142.757 130.127 142.471 130.075 142.471 129.789C142.471 129.607 142.783 129.477 143.199 129.373C144.499 129.061 144.993 128.879 145.097 127.475C145.175 126.383 145.305 123.315 145.305 120.091C145.305 116.997 145.331 116.451 145.279 115.697C145.227 114.553 144.967 114.241 143.823 113.981C143.277 113.851 143.069 113.747 143.069 113.539C143.069 113.305 143.433 113.175 143.797 113.175C145.019 113.175 146.033 113.279 147.775 113.279Z" fill="white"/>
</svg>
